<svg version="1.1" viewBox="0 0 2107 966" width="1024" height="1024" xmlns="http://www.w3.org/2000/svg">
  <g transform="translate(1326,-106) scale(2)">
    <path id="filled" d="m0 0h42l26 3 28 6 27 9 20 9 19 10 18 12 13 10 14 12 14 14 6 8-1 3-3 1-8-8-16-11-21-11-22-8-25-6-22-3-12-1h-36l-32 3-30 5-30 7-26 8-18 8-14 9-10 9-6 7-8 16-2 8-1 13 2 12 4 8 8 7 8 4 13 3 8 1h23l37-4h13l1 4-3 2-40 7-30 7-30 9-26 10-25 12-16 9-14 10-11 9-12 11-8 7-15 14-34 34-7 8-11 13-13 17-14 21-12 21-8 17 11-12 14-19 5-1 1 3-9 12-11 17-13 24-13 27-15 37-11 33-4 17v7l12-13 11-9 16-9 15-7 27-9 29-6 26-3h37l22 3 23 6 25 10 29 14 27 15 23 14 33 22 16 11 4 3-2 5-16-8-24-11-26-10-27-9-36-9-31-5-23-2h-24l-22 3-19 5-20 8-17 9-12 8-13 10-13 12-12 13-12 17-9 16-6 14-4 13-2 12v32l4 22 5 18 9 22 11 21 12 18 10 13 12 14 15 15 22 18 19 13 15 9 23 12 21 9 19 6 15 3 14 1h8l1 5-19 3-11 1h-42l-26-3-24-5-23-7-23-10-18-10-17-12-13-11-10-9-13-12-7-7-7-8-12-14-14-19-9-15-12-23-9-23-7-24-6-29-4-29-1-14v-23l2-29 5-38 7-41-1 1-9 22-2 2h-4v-8l17-69 9-29 11-28 11-24 11-22 16-27 12-18 13-18 9-11 11-13 15-16 12-11 17-13 16-9 4-2-12 2-26 8-25 9-23 10-19 9-12 9-10 9-11 12-12 17-11 19-9 17-7 15-5 1 1-10 7-25 8-21 16-32 5-17 1-8v-31l-3-21-4-15-7-16-9-13-8-8-13-8-14-5-10-2h-26l-9 1-1-5 15-3 16-2 16-1h13l22 2 23 4 24 2h34l27-2 28-4 27-6 23-7 21-9 17-10 21-16 17-14 14-11 16-12 15-10 21-12 20-9 30-10 26-6 28-4z" fill="#d6d6d4"/>
  </g>
</svg>
